<?xml version="1.0" standalone="no"?>
<!DOCTYPE svg PUBLIC "-//W3C//DTD SVG 20010904//EN"
 "http://www.w3.org/TR/2001/REC-SVG-20010904/DTD/svg10.dtd">
<svg version="1.0" xmlns="http://www.w3.org/2000/svg"
 width="736.000000pt" height="552.000000pt" viewBox="0 0 736.000000 552.000000"
 preserveAspectRatio="xMidYMid meet">
<metadata>
Created by potrace 1.15, written by Peter Selinger 2001-2017
</metadata>
<g transform="translate(0.000000,552.000000) scale(0.100000,-0.100000)"
fill="#000000" stroke="none">
<path d="M0 2760 l0 -2760 3680 0 3680 0 0 2760 0 2760 -3680 0 -3680 0 0
-2760z m3901 1531 c201 -52 370 -159 495 -315 67 -85 124 -184 153 -268 20
-58 17 -56 122 -98 259 -104 463 -341 541 -627 30 -112 30 -334 -1 -448 -24
-89 -83 -220 -132 -293 -106 -155 -273 -286 -443 -348 -67 -24 -63 -19 -107
-128 -167 -412 -637 -648 -1072 -537 -299 77 -551 305 -647 585 -18 56 -16 54
-121 96 -259 104 -463 341 -541 627 -30 112 -30 334 0 446 81 299 300 543 576
643 67 24 63 19 107 128 116 288 397 506 714 556 88 13 268 4 356 -19z"/>
<path d="M3605 4050 c-153 -18 -276 -79 -392 -195 -65 -66 -89 -99 -121 -166
-53 -111 -67 -173 -67 -299 0 -89 5 -119 29 -194 32 -97 98 -205 164 -270 l40
-39 74 31 c130 53 200 67 348 67 148 0 218 -14 348 -67 l74 -31 36 36 c101 96
239 102 339 14 89 -78 103 -218 32 -317 l-30 -41 32 -67 c34 -72 79 -235 79
-286 0 -61 12 -63 84 -17 100 66 182 159 232 266 51 108 64 168 64 285 0 118
-13 177 -66 289 -38 81 -56 106 -127 175 -90 89 -168 136 -275 167 -102 29
-202 34 -305 15 -135 -26 -224 -71 -338 -172 -64 -57 -107 -74 -183 -74 -209
1 -313 251 -168 403 84 89 240 96 328 15 22 -19 22 -19 82 11 74 37 205 76
290 86 34 4 62 9 62 11 0 3 -18 33 -40 68 -129 204 -383 324 -625 296z"/>
<path d="M2680 3306 c-99 -66 -176 -155 -226 -261 -51 -109 -64 -168 -64 -288
0 -187 61 -331 194 -462 160 -158 363 -221 579 -181 135 26 224 71 338 172 64
57 107 74 183 74 250 -1 325 -337 101 -452 -80 -41 -213 -21 -268 40 -18 20
-19 20 -93 -14 -68 -32 -174 -61 -297 -81 l-47 -8 48 -75 c89 -137 236 -245
392 -285 85 -22 235 -22 320 0 180 46 352 186 428 346 53 111 67 173 67 299 0
89 -5 119 -29 194 -65 200 -202 340 -412 423 -64 25 -80 27 -214 27 -134 0
-150 -2 -214 -27 -97 -38 -167 -80 -230 -138 -102 -93 -196 -113 -297 -61
-133 67 -175 232 -88 351 l29 40 -20 33 c-39 68 -83 212 -95 321 -4 31 -10 57
-14 57 -3 0 -35 -20 -71 -44z"/>
</g>
</svg>
